<svg width="28" height="28" viewBox="0 0 28 28" fill="none" xmlns="http://www.w3.org/2000/svg">
<path d="M7.89709 10.7351C7.60402 9.946 6.39105 9.96006 6.11625 10.7555L3.82725 16.7654C3.44985 17.77 4.97459 18.3499 5.36041 17.3494L5.72928 16.3809H8.27455L8.63915 17.347C9.02798 18.3527 10.5475 17.7692 10.1741 16.7678L7.90595 10.7575C7.90315 10.75 7.9002 10.7425 7.89709 10.7351ZM6.35414 14.7403L7.00777 13.0241L7.65543 14.7403H6.35414ZM23.4064 11.8098C23.8594 11.8098 24.2267 11.4425 24.2267 10.9894C24.2267 10.5364 23.8594 10.1691 23.4064 10.1691H20.8613C20.4082 10.1691 20.0409 10.5364 20.0409 10.9894V17.0296C20.0409 17.4827 20.4082 17.8499 20.8613 17.8499H23.4064C23.8594 17.8499 24.2267 17.4827 24.2267 17.0296C24.2267 16.5766 23.8594 16.2093 23.4064 16.2093H21.6816V14.8298H23.2187C23.6717 14.8298 24.039 14.4625 24.039 14.0095C24.039 13.5565 23.6717 13.1892 23.2187 13.1892H21.6816V11.8098H23.4064ZM15.0161 11.7629C15.4626 11.7629 15.8931 11.8942 16.261 12.1429C16.6364 12.3964 17.1463 12.2978 17.4 11.9224C17.6536 11.547 17.5549 11.0371 17.1795 10.7834C16.5393 10.3509 15.7912 10.1223 15.0161 10.1223C12.8831 10.1223 11.1479 11.8576 11.1479 13.9905C11.1479 16.1234 12.8831 17.8587 15.0161 17.8587C17.0482 17.8587 18.4675 16.2681 18.4675 13.9905C18.4675 13.5375 18.1002 13.1702 17.6472 13.1702H15.8236C15.3706 13.1702 15.0033 13.5375 15.0033 13.9905C15.0033 14.4436 15.3706 14.8108 15.8236 14.8108H16.7217C16.5183 15.5656 16.0017 16.2181 15.0161 16.2181C13.7878 16.2181 12.7885 15.2188 12.7885 13.9905C12.7885 12.7622 13.7878 11.7629 15.0161 11.7629Z" fill="#100307"/>
<path d="M27.1797 13.1797C26.7267 13.1797 26.3594 13.547 26.3594 14C26.3594 17.3013 25.0738 20.405 22.7394 22.7394C20.405 25.0738 17.3013 26.3594 14 26.3594C10.6987 26.3594 7.595 25.0738 5.26061 22.7394C2.92622 20.405 1.64062 17.3013 1.64062 14C1.64062 10.6987 2.92622 7.595 5.26061 5.26061C7.595 2.92622 10.6987 1.64062 14 1.64062C15.6556 1.64062 17.2617 1.96213 18.7738 2.59629C19.6373 2.95839 20.4566 3.4178 21.216 3.96561L20.1287 4.1026C19.0615 4.24244 19.2736 5.86201 20.3337 5.73037L23.2683 5.36069C23.705 5.32454 24.0521 4.90744 24.0063 4.4713L23.7448 1.52682C23.7047 1.07554 23.3062 0.742 22.8551 0.78225C22.4039 0.822336 22.0705 1.22068 22.1106 1.67191L22.1975 2.65054C21.3308 2.02288 20.3949 1.497 19.408 1.08325C17.6941 0.364438 15.8746 0 14 0C10.2605 0 6.74477 1.45627 4.10052 4.10052C1.45627 6.74477 0 10.2605 0 14C0 17.7395 1.45627 21.2552 4.10052 23.8995C6.74477 26.5437 10.2605 28 14 28C17.7395 28 21.2552 26.5437 23.8995 23.8995C26.5437 21.2552 28 17.7395 28 14C28 13.547 27.6327 13.1797 27.1797 13.1797Z" fill="#100307"/>
</svg>
