<svg width="36" height="36" viewBox="0 0 36 36" fill="none" xmlns="http://www.w3.org/2000/svg">
<path fill-rule="evenodd" clip-rule="evenodd" d="M18 36C8.07476 36 0 27.9252 0 18C0 8.07476 8.07476 0 18 0C27.9252 0 36 8.07476 36 18C36 27.9252 27.9252 36 18 36ZM27.3345 24.3233C27.4413 24.3231 27.5436 24.2807 27.619 24.2052C27.6945 24.1298 27.737 24.0275 27.7371 23.9207V12.6203L18.5789 19.8929C18.4094 20.0275 18.2046 20.0948 17.9999 20.0948C17.7952 20.0948 17.5905 20.0275 17.421 19.8929L8.26284 12.6203V23.9207C8.26297 24.0275 8.30543 24.1298 8.38089 24.2052C8.45635 24.2807 8.55866 24.3231 8.66538 24.3233H27.3345ZM25.9311 11.6767L18 17.975L10.0688 11.6767H25.9311ZM29.5992 12.0793V23.9209C29.5992 25.1696 28.5832 26.1855 27.3345 26.1855H8.66538C7.41663 26.1855 6.40083 25.1696 6.40083 23.9209V12.0793C6.40083 10.8306 7.4167 9.81471 8.66538 9.81471H27.3345C28.5832 9.81464 29.5992 10.8306 29.5992 12.0793Z" fill="#F99A07"/>
</svg>
