<svg width="26" height="28" viewBox="0 0 26 28" fill="none" xmlns="http://www.w3.org/2000/svg">
<path d="M20 0V2H22.59L17.18 7.4C15.9758 6.49145 14.5085 5.99996 13 5.99996C11.4915 5.99996 10.0242 6.49145 8.82 7.4L7.41 6L9.21 4.21L7.79 2.79L6 4.59L3.41 2H6V0H0V6H2V3.41L4.59 6L2.79 7.79L4.21 9.21L6 7.41L7.4 8.82C6.67808 9.79171 6.22049 10.934 6.07191 12.1354C5.92334 13.3368 6.08885 14.5562 6.55229 15.6745C7.01573 16.7928 7.76126 17.7718 8.71608 18.5159C9.6709 19.26 10.8024 19.7438 12 19.92V23H9V25H12V28H14V25H17V23H14V19.92C15.1976 19.7438 16.3291 19.26 17.2839 18.5159C18.2387 17.7718 18.9843 16.7928 19.4477 15.6745C19.9112 14.5562 20.0767 13.3368 19.9281 12.1354C19.7795 10.934 19.3219 9.79171 18.6 8.82L24 3.41V6H26V0H20ZM13 18C12.0111 18 11.0444 17.7068 10.2221 17.1573C9.3999 16.6079 8.75904 15.827 8.3806 14.9134C8.00216 13.9998 7.90315 12.9945 8.09607 12.0245C8.289 11.0546 8.7652 10.1637 9.46447 9.46447C10.1637 8.7652 11.0546 8.289 12.0245 8.09607C12.9945 7.90315 13.9998 8.00216 14.9134 8.3806C15.827 8.75904 16.6079 9.3999 17.1573 10.2221C17.7068 11.0444 18 12.0111 18 13C18 14.3261 17.4732 15.5979 16.5355 16.5355C15.5979 17.4732 14.3261 18 13 18Z" fill="#100307"/>
</svg>
