<svg width="38" height="24" viewBox="0 0 38 24" fill="none" xmlns="http://www.w3.org/2000/svg">
<path d="M35.2242 7.78672C35.4858 7.52509 35.4858 7.10089 35.2242 6.83925C34.9625 6.57762 34.5383 6.57762 34.2767 6.83925C34.0151 7.10089 34.0151 7.52509 34.2767 7.78672C34.5383 8.04836 34.9625 8.04836 35.2242 7.78672Z" fill="url(#paint0_linear_203_278)"/>
<path d="M2.9964 7.78294C3.25803 7.5213 3.25803 7.09711 2.9964 6.83547C2.73476 6.57383 2.31056 6.57383 2.04893 6.83547C1.78729 7.09711 1.78729 7.5213 2.04893 7.78294C2.31056 8.04457 2.73476 8.04457 2.9964 7.78294Z" fill="url(#paint1_linear_203_278)"/>
<path d="M37.2836 8.73362C37.1581 8.60884 36.9883 8.5388 36.8113 8.5388C36.6343 8.5388 36.4645 8.60884 36.339 8.73362C35.0283 10.0443 32.904 10.0467 31.5904 8.73888L27.3345 4.50177C26.8095 3.97913 26.8086 3.12959 27.3324 2.60578C27.8554 2.0828 28.7033 2.0828 29.2263 2.60578L32.5403 5.91979C32.6684 6.02954 32.8333 6.0869 33.0019 6.08038C33.1705 6.07387 33.3305 6.00397 33.4498 5.88466C33.5691 5.76534 33.639 5.60539 33.6455 5.43678C33.652 5.26817 33.5947 5.10331 33.4849 4.97514L28.7684 0.205025C28.6429 0.0802442 28.4731 0.0102055 28.2961 0.0102055C28.1191 0.0102055 27.9493 0.0802442 27.8238 0.205025L24.9831 3.04566C24.8583 3.17118 24.7883 3.34098 24.7883 3.51798C24.7883 3.69497 24.8583 3.86478 24.9831 3.9903C25.3231 4.3303 25.322 4.88189 24.9806 5.2205L24.4355 5.76117C24.1297 6.06448 23.7164 6.23467 23.2857 6.23467H21.6858C21.2581 6.23467 20.8878 5.96375 20.5882 5.6585C20.2048 5.29471 19.6964 5.0919 19.1679 5.0919C18.6393 5.0919 18.131 5.29471 17.7476 5.6585L17.1205 6.28556C17.0959 6.31018 17.0569 6.31295 17.0291 6.29206C17.0257 6.28954 17.0221 6.28732 17.0183 6.28544L12.9305 4.24454C12.6996 4.12923 12.6564 3.79622 12.6564 3.53808C12.6564 3.36108 12.5864 3.19128 12.4616 3.06576L9.63434 0.205025C9.57184 0.140185 9.49691 0.0886098 9.41403 0.0533827C9.33115 0.0181557 9.24202 0 9.15197 0C9.06191 0 8.97278 0.0181557 8.8899 0.0533827C8.80702 0.0886098 8.73209 0.140185 8.66959 0.205025L3.94637 4.94834C3.83662 5.07651 3.77926 5.24137 3.78578 5.40998C3.79229 5.5786 3.86219 5.73854 3.9815 5.85786C4.10082 5.97717 4.26077 6.04707 4.42938 6.05359C4.59799 6.0601 4.76285 6.00275 4.89102 5.89299L8.19162 2.59239C8.72118 2.06282 9.58048 2.06508 10.1073 2.59742C10.631 3.12665 10.6278 3.97983 10.1001 4.50513L5.84425 8.74222C4.53307 10.0476 2.41218 10.0438 1.10574 8.73362C0.977576 8.62386 0.812715 8.56651 0.644102 8.57302C0.475489 8.57954 0.315543 8.64944 0.196227 8.76875C0.0769107 8.88807 0.00701243 9.04801 0.000499644 9.21663C-0.00601314 9.38524 0.0513395 9.5501 0.161097 9.67826L3.00173 12.5189C3.12725 12.6437 3.29706 12.7137 3.47405 12.7137C3.65104 12.7137 3.82085 12.6437 3.94637 12.5189C4.46123 12.0077 5.29251 12.0092 5.80552 12.5223L8.56102 15.2778C8.94267 15.6594 9.06214 16.2208 9.18555 16.7462C9.25168 17.0277 9.37776 17.2916 9.5552 17.5199C9.73265 17.7483 9.95726 17.9356 10.2137 18.0692C10.6495 18.2961 11.041 18.6858 11.2701 19.1204C11.3633 19.2973 11.4832 19.4606 11.6269 19.6043C12.2153 20.1928 12.9261 20.9202 13.5145 21.5086C13.5954 21.5895 13.6826 21.6626 13.7749 21.7276C14.2992 22.0964 14.827 22.6187 15.1949 23.1436C15.4131 23.4549 15.715 23.6979 16.0657 23.8445C16.4164 23.9911 16.8015 24.0352 17.1762 23.9718C17.2157 23.9651 17.255 23.9573 17.2938 23.9483C17.912 23.8053 18.5748 23.6376 19.1845 23.4621C19.5107 23.3683 19.8072 23.1919 20.0455 22.9502C20.2803 22.7106 20.693 22.6346 20.9977 22.7748C21.0923 22.8183 21.1904 22.8545 21.2912 22.883C21.6137 22.9741 21.954 22.9831 22.2809 22.9092C22.6078 22.8353 22.9111 22.6808 23.163 22.4598C23.5779 22.0959 24.1623 21.8284 24.708 21.7463C24.8646 21.7228 25.0189 21.6803 25.1675 21.619C25.3767 21.5327 25.5676 21.412 25.7333 21.2635C26.0199 21.0066 26.51 20.9277 26.8616 21.0844C27.1081 21.1943 27.3743 21.2533 27.6442 21.2581C27.914 21.2629 28.1821 21.2132 28.4323 21.1121C28.6826 21.0111 28.91 20.8606 29.1008 20.6697C29.2917 20.4789 29.4421 20.2515 29.5432 20.0013C29.6443 19.751 29.6939 19.4829 29.6892 19.2131C29.6844 18.9432 29.6253 18.6771 29.5155 18.4305C29.4056 18.184 29.2473 17.9621 29.0498 17.7781C28.5417 17.27 28.4161 16.4938 28.7379 15.8514L29.805 13.7211C29.9261 13.4794 30.084 13.258 30.273 13.0648L30.793 12.5334C31.5225 11.7878 32.7205 11.7813 33.4581 12.5189C33.5837 12.6437 33.7535 12.7137 33.9305 12.7137C34.1074 12.7137 34.2772 12.6437 34.4028 12.5189L37.2434 9.67826C37.3737 9.55813 37.451 9.39129 37.4586 9.21424C37.4661 9.0372 37.4032 8.86438 37.2836 8.73362ZM16.9034 8.39532C16.9034 8.39316 16.9043 8.39109 16.9058 8.38957L18.719 6.60315C18.7738 6.55037 18.8373 6.50732 18.9066 6.47585C19.0513 6.4092 19.2149 6.39628 19.3683 6.4394C19.5216 6.48252 19.6546 6.57887 19.7433 6.71115C19.832 6.84344 19.8707 7.00301 19.8525 7.16125C19.8342 7.31948 19.7601 7.46602 19.6435 7.57459L17.8481 9.34328C17.7225 9.46807 17.5527 9.5381 17.3757 9.5381C17.1987 9.5381 17.0289 9.46807 16.9034 9.34328C16.7786 9.21776 16.7086 9.04796 16.7086 8.87096C16.7086 8.69508 16.7778 8.5263 16.9011 8.40101C16.9026 8.39949 16.9034 8.39744 16.9034 8.39532ZM11.6174 16.753C11.4883 16.8549 11.3262 16.9057 11.162 16.8957C10.9978 16.8857 10.8431 16.8157 10.7272 16.699C10.6113 16.5823 10.5424 16.427 10.5336 16.2628C10.5248 16.0986 10.5767 15.9368 10.6795 15.8084L11.3494 15.1719L11.5437 14.9777C11.6719 14.8679 11.8368 14.8105 12.0054 14.8171C12.174 14.8236 12.3339 14.8935 12.4532 15.0128C12.5726 15.1321 12.6425 15.292 12.649 15.4607C12.6555 15.6293 12.5981 15.7941 12.4884 15.9223L12.2941 16.1166L11.6174 16.753ZM13.5134 18.649C13.4197 18.7435 13.3 18.808 13.1695 18.8341C13.039 18.8603 12.9037 18.847 12.7808 18.796C12.6579 18.745 12.553 18.6585 12.4794 18.5476C12.4133 18.4479 12.3752 18.3325 12.3687 18.2135C12.3673 18.1868 12.3678 18.16 12.3678 18.1332C12.3751 17.97 12.4418 17.8151 12.5554 17.6977L13.2253 17.0277L13.4196 16.8334C13.5458 16.7082 13.7165 16.6382 13.8943 16.6388C14.0721 16.6394 14.2423 16.7106 14.3676 16.8368C14.4929 16.9629 14.5629 17.1337 14.5623 17.3115C14.5616 17.4893 14.4904 17.6595 14.3643 17.7848L14.17 17.9791L13.5134 18.649ZM15.4094 20.545C15.2892 20.6576 15.1318 20.722 14.9672 20.7259C14.7895 20.7259 14.6191 20.6553 14.4935 20.5297C14.3678 20.404 14.2973 20.2336 14.2973 20.056C14.2973 20.056 14.2973 20.056 14.2973 20.056C14.2973 20.056 14.2973 20.056 14.2973 20.0158C14.3046 19.8526 14.3713 19.6977 14.4849 19.5803L15.1548 18.9438L15.3491 18.7495C15.4773 18.6398 15.6421 18.5824 15.8107 18.5889C15.9794 18.5954 16.1393 18.6653 16.2586 18.7847C16.3779 18.904 16.4478 19.0639 16.4543 19.2325C16.4609 19.4011 16.4035 19.566 16.2937 19.6942L16.0995 19.8885L15.4094 20.545ZM18.2376 21.3905C18.2056 21.5704 18.0711 21.7088 17.9418 21.838L17.2719 22.508C17.1457 22.6333 16.975 22.7033 16.7972 22.7027C16.6194 22.702 16.4492 22.6308 16.3239 22.5047C16.1986 22.3785 16.1286 22.2078 16.1292 22.03C16.1299 21.8522 16.2011 21.6819 16.3272 21.5567L16.9972 20.9202C17.1265 20.7909 17.2627 20.6544 17.4417 20.6172C17.5032 20.6044 17.5667 20.6002 17.6302 20.6052C17.7861 20.6174 17.9328 20.6837 18.0449 20.7926C18.157 20.9016 18.2275 21.0463 18.2442 21.2017C18.251 21.2651 18.2486 21.3286 18.2376 21.3905ZM28.0984 19.6339C27.9729 19.7587 27.8031 19.8287 27.6261 19.8287C27.4491 19.8287 27.2793 19.7587 27.1538 19.6339L25.8139 18.294L21.0538 13.5339C20.793 13.273 20.37 13.273 20.1092 13.5339C19.8483 13.7947 19.8483 14.2177 20.1092 14.4785L21.6467 16.0161L24.8692 19.2386C24.994 19.3641 25.0641 19.5339 25.0641 19.7109C25.0641 19.8879 24.994 20.0577 24.8692 20.1832C24.7437 20.308 24.5739 20.3781 24.3969 20.3781C24.2199 20.3781 24.0501 20.308 23.9246 20.1832L23.2546 19.5133L18.719 14.9442L18.5214 14.7465C18.2605 14.4857 17.8376 14.4857 17.5767 14.7465C17.3159 15.0074 17.3159 15.4303 17.5767 15.6912L22.3368 20.4512C22.4616 20.5768 22.5316 20.7466 22.5316 20.9235C22.5316 21.1005 22.4616 21.2703 22.3368 21.3959C22.2113 21.5207 22.0415 21.5907 21.8645 21.5907C21.6875 21.5907 21.5177 21.5207 21.3921 21.3959L20.0522 20.056L16.0074 15.9789C15.9175 15.8883 15.7713 15.8873 15.6802 15.9768C15.5773 16.0777 15.4086 16.0605 15.3105 15.955C15.1705 15.8045 15.0064 15.6774 14.8245 15.5791C14.3833 15.341 13.975 14.9409 13.7438 14.496C13.6523 14.3198 13.5344 14.1568 13.3928 14.0129C13.0094 13.6491 12.501 13.4463 11.9725 13.4463C11.444 13.4463 10.9356 13.6491 10.5522 14.0129C10.1822 14.3829 9.58227 14.3829 9.21226 14.0129L7.85224 12.6529C6.73111 11.5318 6.73112 9.71406 7.85224 8.59293L10.1873 6.25785C10.9365 5.5087 12.0824 5.32617 13.0272 5.80547L15.8955 7.26053C15.9664 7.29647 15.9814 7.39112 15.9253 7.4473C15.5702 7.8283 15.377 8.33224 15.3861 8.85293C15.3953 9.37363 15.6063 9.87043 15.9745 10.2387C16.3428 10.6069 16.8396 10.8179 17.3603 10.827C17.881 10.8362 18.3849 10.643 18.7659 10.2879C19.0139 10.0399 19.4159 10.0397 19.6642 10.2874L28.0984 18.7026C28.2192 18.8276 28.2867 18.9945 28.2867 19.1683C28.2867 19.342 28.2192 19.509 28.0984 19.6339ZM28.956 12.4452C28.9026 12.4935 28.8574 12.55 28.822 12.6127C28.0171 14.2225 25.8727 14.5726 24.5977 13.3024L20.5889 9.30903C20.3703 9.09126 20.37 8.73742 20.5882 8.51923C21.0328 8.06155 21.5556 7.57459 22.1937 7.57459H24.2395C24.3276 7.5751 24.415 7.5582 24.4967 7.52486C24.5783 7.49152 24.6525 7.44239 24.7151 7.3803C25.7179 6.37758 27.3436 6.37758 28.3463 7.3803L28.9925 8.02651C30.217 9.25095 30.2005 11.2412 28.956 12.4452Z" fill="url(#paint2_linear_203_278)"/>
<defs>
<linearGradient id="paint0_linear_203_278" x1="33.803" y1="7.31299" x2="34.908" y2="6.25328" gradientUnits="userSpaceOnUse">
<stop stop-color="#FE316E"/>
<stop offset="0.5" stop-color="#E3447E"/>
<stop offset="1" stop-color="#F23327"/>
</linearGradient>
<linearGradient id="paint1_linear_203_278" x1="1.5752" y1="7.3092" x2="2.68026" y2="6.24949" gradientUnits="userSpaceOnUse">
<stop stop-color="#FE316E"/>
<stop offset="0.5" stop-color="#E3447E"/>
<stop offset="1" stop-color="#F23327"/>
</linearGradient>
<linearGradient id="paint2_linear_203_278" x1="0" y1="0" x2="42.7664" y2="1.39835" gradientUnits="userSpaceOnUse">
<stop stop-color="#FE316E"/>
<stop offset="0.5" stop-color="#E3447E"/>
<stop offset="1" stop-color="#F23327"/>
</linearGradient>
</defs>
</svg>
