<svg width="24" height="28" viewBox="0 0 24 28" fill="none" xmlns="http://www.w3.org/2000/svg">
<path d="M11.7678 28C11.6375 28.0006 11.5084 27.9752 11.388 27.9252C11.2677 27.8753 11.1585 27.8018 11.067 27.7091L3.451 20.0931C1.80403 18.4478 0.682056 16.3511 0.227009 14.068C-0.228037 11.785 0.00429375 9.41822 0.89461 7.26724C1.78493 5.11625 3.29322 3.27766 5.22868 1.98407C7.16415 0.690473 9.4398 0 11.7678 0C14.0957 0 16.3714 0.690473 18.3068 1.98407C20.2423 3.27766 21.7506 5.11625 22.6409 7.26724C23.5312 9.41822 23.7636 11.785 23.3085 14.068C22.8535 16.3511 21.7315 18.4478 20.0845 20.0931L12.4685 27.7091C12.377 27.8018 12.2678 27.8753 12.1475 27.9252C12.0272 27.9752 11.8981 28.0006 11.7678 28ZM11.7678 1.99192C9.83358 1.99328 7.94319 2.56786 6.33541 3.64307C4.72763 4.71829 3.47459 6.24591 2.73459 8.03294C1.9946 9.81996 1.80084 11.7862 2.17781 13.6833C2.55478 15.5804 3.48556 17.3232 4.85255 18.6916L11.7678 25.6068L18.683 18.6916C20.05 17.3232 20.9807 15.5804 21.3577 13.6833C21.7347 11.7862 21.5409 9.81996 20.8009 8.03294C20.0609 6.24591 18.8079 4.71829 17.2001 3.64307C15.5923 2.56786 13.7019 1.99328 11.7678 1.99192Z" fill="#100307"/>
<path d="M11.7678 16.1397C10.7871 16.1397 9.82847 15.8489 9.01308 15.304C8.19769 14.7592 7.56216 13.9848 7.18688 13.0788C6.8116 12.1728 6.71341 11.1758 6.90472 10.214C7.09604 9.25221 7.56828 8.36872 8.26171 7.67528C8.95514 6.98185 9.83863 6.50962 10.8005 6.3183C11.7623 6.12698 12.7592 6.22517 13.6652 6.60045C14.5713 6.97574 15.3456 7.61126 15.8905 8.42665C16.4353 9.24204 16.7261 10.2007 16.7261 11.1813C16.7261 12.4964 16.2037 13.7575 15.2738 14.6874C14.344 15.6173 13.0828 16.1397 11.7678 16.1397ZM11.7678 8.20635C11.1794 8.20635 10.6042 8.38083 10.115 8.70773C9.62572 9.03463 9.24441 9.49926 9.01924 10.0429C8.79407 10.5865 8.73515 11.1846 8.84994 11.7617C8.96474 12.3388 9.24808 12.8689 9.66414 13.285C10.0802 13.701 10.6103 13.9844 11.1874 14.0992C11.7645 14.214 12.3626 14.1551 12.9063 13.9299C13.4499 13.7047 13.9145 13.3234 14.2414 12.8342C14.5683 12.3449 14.7428 11.7697 14.7428 11.1813C14.7428 10.3923 14.4293 9.63563 13.8714 9.07771C13.3135 8.51979 12.5568 8.20635 11.7678 8.20635Z" fill="#100307"/>
</svg>
