<svg width="28" height="19" viewBox="0 0 28 19" fill="none" xmlns="http://www.w3.org/2000/svg">
<path d="M24.6472 0H2.375C1.06812 0 0 1.06342 0 2.375V16.625C0 17.9371 1.0688 19 2.375 19H24.6472C25.9541 19 27.0222 17.9366 27.0222 16.625V2.375C27.0222 1.0631 25.9536 0 24.6472 0ZM24.2825 1.58333L14.1246 11.7744C13.8151 12.0848 13.2073 12.0851 12.8976 11.7744L2.73969 1.58333H24.2825ZM1.58333 16.3339V2.66607L8.3951 9.5L1.58333 16.3339ZM2.73969 17.4167L9.51288 10.6214L11.7763 12.8922C12.7038 13.8227 14.3188 13.8223 15.246 12.8922L17.5094 10.6215L24.2825 17.4167H2.73969ZM25.4389 16.3339L18.6271 9.5L25.4389 2.66607V16.3339Z" fill="#656565"/>
</svg>
